<svg xmlns="http://www.w3.org/2000/svg" version="1.1" xmlns:xlink="http://www.w3.org/1999/xlink" xmlns:svgjs="http://svgjs.com/svgjs" width="1440" height="560" preserveAspectRatio="none" viewBox="0 0 1440 560"><g mask="url(&quot;#SvgjsMask1003&quot;)" fill="none"><rect width="1440" height="560" x="0" y="0" fill="rgba(1, 63, 126, 1)"></rect><path d="M0,489.831C90.177,488.004,141.644,387.171,216.148,336.333C287.98,287.318,388.828,272.969,430.036,196.391C471.676,119.01,439.909,25.473,430.439,-61.888C420.614,-152.527,429.884,-252.008,373.653,-323.772C316.685,-396.475,221.381,-427.854,130.55,-444.612C45.51,-460.301,-38.626,-438.462,-121.914,-415.201C-206.255,-391.645,-304.297,-379.18,-356.216,-308.663C-407.633,-238.828,-369.415,-140.582,-386.677,-55.596C-405.425,36.706,-497.563,123.761,-461.741,210.87C-426.164,297.382,-301.917,296.838,-221.852,345.209C-144.733,391.801,-90.083,491.656,0,489.831" fill="#013265"></path><path d="M1440 898.6220000000001C1521.308 905.779 1601.167 958.081 1677.836 930.0799999999999 1758.3220000000001 900.685 1814.189 825.047 1851.999 748.154 1890.464 669.931 1910.886 580.091 1891.754 495.048 1873.231 412.71299999999997 1820.711 337.01 1749.364 291.935 1684.855 251.18 1601.34 280.674 1526.777 264.465 1459.65 249.872 1403.095 194.152 1334.829 201.81900000000002 1262.348 209.95999999999998 1202.004 257.949 1148.029 307.006 1088.537 361.078 1015.073 417.86400000000003 1008.932 498.022 1002.806 577.992 1078.315 637.2860000000001 1117.359 707.345 1152.761 770.8679999999999 1165.078 853.364 1227.633 890.45 1289.83 927.3240000000001 1367.973 892.2819999999999 1440 898.6220000000001" fill="#014c97"></path></g><defs><mask id="SvgjsMask1003"><rect width="1440" height="560" fill="#ffffff"></rect></mask></defs></svg>